# xmcd CD database file
#
# Track frame offsets:
#	150
#	19213
#	47308
#	64153
#	96399
#	120399
#	137123
#	158161
#
# Disc length: 2511 seconds
#
# Revision: 0
# Processed by: cddbd v1.4b41PL1 Copyright (c) Steve Scherf et al.
# Submitted via: Feurio! 1.61 - http://www.feurio.com
#
DISCID=6409cd08
DTITLE=Son Seals - Live and Burning
DYEAR=1900
DGENRE=
TTITLE0=I Can't Hold Out
TTITLE1=Blue Shadows Falling
TTITLE2=Funky Bitch
TTITLE3=The Woman I Love
TTITLE4=Help Me Somebody
TTITLE5=She's Fine
TTITLE6=Call My Job
TTITLE7=Last Night
EXTD=
EXTT0=
EXTT1=
EXTT2=
EXTT3=
EXTT4=
EXTT5=
EXTT6=
EXTT7=
PLAYORDER=
